<svg width="49" height="49" viewBox="0 0 49 49" fill="none" xmlns="http://www.w3.org/2000/svg">
<path d="M48.1548 24.0836C48.1548 37.3386 37.3324 48.0803 24.0836 48.0803C10.8348 48.0803 0 37.3386 0 24.0836C0 10.8286 10.8224 0 24.0836 0C30.587 0 36.6374 2.75525 40.9874 6.95638L45.4368 6.50338L43.9971 10.5804C46.591 14.3658 48.1548 19.144 48.1548 24.0836Z" fill="white"/>
<path fill-rule="evenodd" clip-rule="evenodd" d="M13.6227 28.7626C13.8958 28.2971 13.7406 27.6828 13.2752 27.4035C12.8036 27.1305 12.2016 27.2856 11.9162 27.7573C11.6432 28.2227 11.8045 28.837 12.2637 29.1101C12.7353 29.3955 13.3435 29.2342 13.6227 28.7626ZM14.2805 19.2557C14.7459 18.933 14.8638 18.2939 14.5411 17.8284C14.2122 17.363 13.5731 17.2451 13.1077 17.574C12.6422 17.9029 12.5367 18.5421 12.8594 19.0075C13.1821 19.4729 13.8213 19.5846 14.2867 19.2557H14.2805ZM13.5048 23.0411C13.1387 23.4072 13.1387 23.9967 13.5048 24.3629C13.8709 24.729 14.4667 24.729 14.8328 24.3629C15.1989 23.9967 15.1989 23.401 14.8328 23.0411C14.4667 22.6687 13.8709 22.6687 13.5048 23.0411ZM14.6714 32.008C14.2184 31.8281 13.7096 32.0577 13.5358 32.5107C13.3621 32.9575 13.5855 33.4725 14.0385 33.6463C14.4915 33.82 14.9941 33.5967 15.1741 33.1436C15.3478 32.6906 15.1244 32.1818 14.6714 32.008ZM18.6678 17.3134C19.1456 17.0838 19.3566 16.5005 19.127 16.0102C18.9036 15.5262 18.3203 15.3214 17.83 15.5448C17.3398 15.7806 17.135 16.3577 17.3646 16.848C17.588 17.3382 18.1776 17.543 18.6678 17.3134ZM21.6092 13.8693C22.1677 13.7514 22.5214 13.2053 22.4035 12.6468C22.2794 12.0883 21.7395 11.7346 21.181 11.8525C20.6287 11.9642 20.2688 12.5165 20.3867 13.0688C20.5046 13.6211 21.0507 13.9748 21.6092 13.8631V13.8693ZM26.4061 13.3729C26.9335 13.3605 27.3431 12.9199 27.3245 12.3986C27.3121 11.8836 26.8715 11.4678 26.3564 11.4802C25.8352 11.4988 25.4194 11.9332 25.438 12.4483C25.4566 12.9757 25.891 13.3853 26.4061 13.3667V13.3729ZM27.4672 27.8503L21.8512 21.8062C21.4665 21.347 22.7386 20.2796 23.1234 20.7388L28.0319 27.3787C28.3732 27.8317 27.852 28.2537 27.4734 27.8441L27.4672 27.8503ZM25.0657 44.1088L25.1401 41.0867C25.5559 39.7711 26.2944 40.1373 26.2944 40.1373C27.2748 41.2232 27.3679 43.1966 27.3741 43.8606C26.6171 43.9847 25.8538 44.0716 25.0719 44.1026L25.0657 44.1088ZM18.9781 34.5461C18.5127 34.5833 18.3885 33.305 18.8478 33.2616L25.2394 33.1747C25.6738 33.1561 25.7235 33.6835 25.2891 33.7518L18.9843 34.5461H18.9781ZM18.7981 29.9726L25.3946 31.6543C25.8538 31.7598 25.7545 32.3059 25.2953 32.2501L18.5685 31.3192C18.0845 31.2324 18.3203 29.8796 18.7981 29.9664V29.9726ZM17.6563 33.2119C16.651 33.6091 15.4409 33.9131 14.1812 34.2482C13.8958 34.3227 13.9206 34.391 13.6972 34.211C12.7601 33.485 12.3071 32.9203 12.3133 32.7093C12.3258 32.5231 12.9215 31.9212 13.8709 31.3627C14.1191 31.2137 14.0881 31.2634 14.3674 31.3875C15.4471 31.8219 16.5269 32.3618 17.6253 32.8706C17.9355 33.0009 17.9293 33.1002 17.6625 33.2119H17.6563ZM11.7797 29.6934C10.8613 28.7129 10.4579 27.9931 10.5075 27.7697C10.5634 27.5463 11.3267 26.994 12.4871 26.541C12.7912 26.4231 12.7477 26.4789 13.0332 26.6465C14.1626 27.3415 15.2734 28.1358 16.4028 28.8991C16.7255 29.1039 16.7069 29.2156 16.3842 29.2776C15.1865 29.5445 13.7716 29.6624 12.3071 29.8113C11.9782 29.8423 11.9907 29.9168 11.7735 29.681L11.7797 29.6934ZM11.7859 16.9783C11.9224 16.7983 12.8905 16.5998 14.1688 16.6742C14.5163 16.6928 14.448 16.7239 14.6404 17.0155C15.4037 18.1449 16.1049 19.3736 16.8496 20.5837C17.0668 20.9188 16.9923 21.0119 16.6634 20.9374C15.4223 20.6706 14.0447 20.1803 12.5988 19.6901C12.2637 19.5784 12.2513 19.6529 12.1458 19.3364C11.7052 18.0208 11.6307 17.1582 11.7797 16.9721L11.7859 16.9783ZM17.2467 25.4985C16.0863 25.455 14.7645 25.2378 13.3807 25.033C13.0704 24.9834 13.0642 25.0579 12.9215 24.7848C12.3071 23.6678 12.1086 22.9108 12.2079 22.7122C12.3009 22.5322 13.1387 22.2033 14.3053 22.0606C14.6094 22.0234 14.5659 22.0606 14.7893 22.284C15.6581 23.19 16.4835 24.1829 17.346 25.1509C17.588 25.4178 17.5446 25.5109 17.2405 25.4985H17.2467ZM16.682 14.7815C16.831 14.6388 17.7742 14.6016 18.9719 14.8746C19.2821 14.9491 19.2201 14.9739 19.3566 15.2718C19.8965 16.457 20.3557 17.7167 20.8583 18.9703C21.0073 19.3178 20.9266 19.3984 20.6287 19.2743C19.5055 18.8275 18.2955 18.1449 17.0109 17.4623C16.7255 17.3072 16.6944 17.3754 16.6448 17.0652C16.44 15.7558 16.5021 14.9429 16.6758 14.7877L16.682 14.7815ZM25.5683 30.8228L18.9346 27.72C18.4692 27.478 19.1394 26.1749 19.6048 26.4169L25.86 30.2395C26.2944 30.5001 26.0151 31.0276 25.5621 30.8228H25.5683ZM20.0826 24.5304C19.6545 24.1705 20.6536 22.9666 21.0817 23.3265L26.7412 28.7253C27.1321 29.0915 26.7226 29.5755 26.2944 29.259L20.0826 24.5304ZM19.5986 13.1123C19.7103 11.7222 19.9834 10.9031 20.1881 10.7852C20.3867 10.6797 21.3548 10.8721 22.5214 11.4492C22.8193 11.5981 22.7448 11.6043 22.8193 11.9518C23.0799 13.3046 23.2413 14.7133 23.4522 16.1157C23.5143 16.5005 23.415 16.5687 23.1482 16.3701C22.1118 15.6379 21.0197 14.6388 19.8841 13.6211C19.6234 13.3915 19.5738 13.4536 19.5986 13.1185V13.1123ZM26.071 18.4614L29.4219 26.5286C29.6453 27.0747 29.0062 27.3911 28.7145 26.8637L24.4948 19.2185C24.2217 18.66 25.7979 17.8967 26.071 18.4614ZM24.7244 12.3614C25.0533 11.1265 25.4318 10.4315 25.6366 10.357C25.8414 10.2949 26.6853 10.63 27.6348 11.3375C27.8892 11.5236 27.8209 11.5236 27.8271 11.8463C27.8457 13.1122 27.7651 14.403 27.7216 15.7124C27.7216 16.0785 27.6161 16.1219 27.399 15.8923C26.5798 15.0608 25.7669 13.9748 24.8981 12.8702C24.7058 12.622 24.6499 12.6717 24.7306 12.3676L24.7244 12.3614ZM29.7695 16.8914L31.1409 25.9577C31.234 26.5844 30.5079 26.7272 30.3404 26.1252L27.9699 17.2637C27.8395 16.6184 29.6391 16.2522 29.7757 16.8914H29.7695ZM33.2135 10.8224C33.8279 10.8224 34.6966 10.6238 35.1869 11.2382C34.4794 11.7346 34.3615 13.2922 34.3615 13.2922L34.194 13.8755C33.3252 13.0068 32.8846 12.5538 31.5628 11.443C31.476 11.443 32.0159 10.9465 33.2135 10.8224ZM36.8313 23.8788C37.2471 25.0392 36.9616 28.3282 34.2436 30.1464C34.2002 30.1464 34.2002 30.103 34.1195 30.103C35.3979 28.4585 36.8313 23.8788 36.8313 23.8788ZM37.818 10.748C38.271 10.748 38.6371 11.0768 38.6371 11.4864C38.6371 11.896 38.271 12.2745 37.818 12.2745C37.365 12.2745 37.0796 11.9022 37.0796 11.4864C37.0796 11.0706 37.365 10.748 37.818 10.748ZM41.7027 11.716L40.958 13.0378C43.0865 16.2088 44.3214 20.0066 44.3214 24.0898C44.3214 33.7456 37.3836 41.7941 28.2429 43.7054C27.6472 40.069 29.9991 38.9086 29.9991 38.9086C46.8284 31.704 37.9421 17.09 37.9421 17.09C36.8313 14.0121 37.8118 14.0927 37.818 13.95C38.6682 13.4598 39.6424 13.0005 40.2319 12.2249C40.9332 11.4306 41.8082 9.92882 42.4349 8.80563L39.6735 9.26484C36.7134 8.89251 36.006 9.92882 36.006 9.92882C32.1772 8.48294 29.9991 7.82515 29.757 9.92882C20.3681 6.13105 12.9277 10.7107 9.29747 17.09C4.56887 25.3185 8.8879 38.8217 22.1429 39.8953C24.2465 40.8137 24.1969 43.389 24.1349 44.1336H24.079C12.8842 44.1336 3.8242 35.1542 3.8242 24.0836C3.8242 13.013 12.8842 3.98394 24.079 3.98394C28.6835 3.98394 32.9591 5.54773 36.3783 8.15404L38.3455 8.01132C34.5229 4.66655 29.5274 2.62493 24.079 2.62493C12.183 2.62493 2.42796 12.2621 2.42796 24.0774C2.42796 35.8927 12.183 45.443 24.079 45.443C35.975 45.443 45.6804 35.8058 45.6804 24.0774C45.6804 19.4729 44.2035 15.2097 41.7027 11.7098V11.716ZM24.079 47.3419C11.2336 47.3419 0.820733 36.8918 0.820733 24.0836C0.820733 11.2754 11.2336 0.819132 24.079 0.819132C30.3279 0.819132 36.3783 3.53715 40.5733 7.61417L44.5634 7.24183L43.2478 10.8659C45.6742 14.5768 47.3311 19.3054 47.3311 24.0836C47.3311 36.8856 36.8748 47.3419 24.079 47.3419ZM43.9925 10.5804L45.4384 6.50338L40.989 6.95638C36.6328 2.76146 30.5824 0 24.0852 0C10.8302 0 0.0078125 10.8224 0.0078125 24.0836C0.0078125 37.3448 10.8302 48.0803 24.0852 48.0803C37.3402 48.0803 48.1564 37.3386 48.1564 24.0836C48.1564 19.144 46.5988 14.3658 43.9987 10.5804H43.9925ZM13.6227 28.7626C13.8958 28.2971 13.7406 27.6828 13.2752 27.4035C12.8036 27.1305 12.2016 27.2856 11.9162 27.7573C11.6432 28.2227 11.8045 28.837 12.2637 29.1101C12.7353 29.3955 13.3435 29.2342 13.6227 28.7626ZM14.2805 19.2557C14.7459 18.933 14.8638 18.2939 14.5411 17.8284C14.2122 17.363 13.5731 17.2451 13.1077 17.574C12.6422 17.9029 12.5367 18.5421 12.8594 19.0075C13.1821 19.4729 13.8213 19.5846 14.2867 19.2557H14.2805ZM13.4986 23.0411C13.1325 23.4072 13.1325 23.9967 13.4986 24.3629C13.8647 24.729 14.4605 24.729 14.8266 24.3629C15.1927 23.9967 15.1927 23.401 14.8266 23.0411C14.4605 22.6687 13.8647 22.6687 13.4986 23.0411ZM14.6714 32.008C14.2184 31.8281 13.7096 32.0577 13.5358 32.5107C13.3621 32.9575 13.5855 33.4725 14.0385 33.6463C14.4915 33.82 14.9941 33.5967 15.1741 33.1436C15.3478 32.6906 15.1244 32.1818 14.6714 32.008ZM18.6678 17.3134C19.1456 17.0838 19.3566 16.5005 19.127 16.0102C18.9036 15.5262 18.3203 15.3214 17.83 15.5448C17.3398 15.7806 17.135 16.3577 17.3646 16.848C17.588 17.3382 18.1776 17.543 18.6678 17.3134ZM21.6092 13.8693C22.1677 13.7514 22.5214 13.2053 22.4035 12.6468C22.2794 12.0883 21.7395 11.7346 21.181 11.8525C20.6287 11.9642 20.2688 12.5165 20.3867 13.0688C20.5046 13.6211 21.0507 13.9748 21.6092 13.8631V13.8693ZM26.4061 13.3729C26.9335 13.3605 27.3431 12.9199 27.3245 12.3986C27.3121 11.8836 26.8715 11.4678 26.3564 11.4802C25.8352 11.4988 25.4194 11.9332 25.438 12.4483C25.4566 12.9757 25.891 13.3853 26.4061 13.3667V13.3729ZM27.4672 27.8503L21.8512 21.8062C21.4665 21.347 22.7386 20.2796 23.1234 20.7388L28.0319 27.3787C28.3732 27.8317 27.852 28.2537 27.4734 27.8441L27.4672 27.8503ZM25.0657 44.1088L25.1401 41.0867C25.5559 39.7711 26.2944 40.1373 26.2944 40.1373C27.2748 41.2232 27.3679 43.1966 27.3741 43.8606C26.6171 43.9847 25.8538 44.0716 25.0719 44.1026L25.0657 44.1088ZM18.9781 34.5523C18.5127 34.5895 18.3885 33.3112 18.8478 33.2678L25.2394 33.1809C25.6738 33.1623 25.7235 33.6897 25.2891 33.758L18.9843 34.5523H18.9781ZM18.7981 29.9726L25.3946 31.6543C25.8538 31.7598 25.7545 32.3059 25.2953 32.2501L18.5685 31.3192C18.0845 31.2324 18.3203 29.8796 18.7981 29.9664V29.9726ZM17.6563 33.2119C16.651 33.6091 15.4409 33.9131 14.1812 34.2482C13.8958 34.3227 13.9206 34.391 13.6972 34.211C12.7601 33.485 12.3071 32.9203 12.3133 32.7093C12.3258 32.5231 12.9215 31.9212 13.8709 31.3627C14.1191 31.2137 14.0881 31.2634 14.3674 31.3875C15.4471 31.8219 16.5269 32.3618 17.6253 32.8706C17.9355 33.0009 17.9293 33.1002 17.6625 33.2119H17.6563ZM11.7797 29.6934C10.8613 28.7129 10.4579 27.9931 10.5075 27.7697C10.5634 27.5463 11.3267 26.994 12.4871 26.541C12.7912 26.4231 12.7477 26.4789 13.0332 26.6465C14.1626 27.3415 15.2734 28.1358 16.4028 28.8991C16.7255 29.1039 16.7069 29.2156 16.3842 29.2776C15.1865 29.5445 13.7716 29.6624 12.3071 29.8113C11.9782 29.8423 11.9907 29.9168 11.7735 29.681L11.7797 29.6934ZM11.7859 16.9783C11.9224 16.7983 12.8905 16.5998 14.1688 16.6742C14.5163 16.6928 14.448 16.7239 14.6404 17.0155C15.4037 18.1449 16.1049 19.3736 16.8496 20.5837C17.0668 20.9188 16.9923 21.0119 16.6634 20.9374C15.4223 20.6706 14.0447 20.1803 12.5988 19.6901C12.2637 19.5784 12.2513 19.6529 12.1458 19.3364C11.7052 18.0208 11.6307 17.1582 11.7797 16.9721L11.7859 16.9783ZM17.2467 25.5047C16.0863 25.4612 14.7645 25.244 13.3807 25.0393C13.0704 24.9896 13.0642 25.0641 12.9215 24.791C12.3071 23.674 12.1086 22.917 12.2079 22.7184C12.3009 22.5384 13.1387 22.2095 14.3053 22.0668C14.6094 22.0296 14.5659 22.0668 14.7893 22.2902C15.6581 23.1962 16.4835 24.1891 17.346 25.1572C17.588 25.424 17.5446 25.5171 17.2405 25.5047H17.2467ZM16.682 14.7877C16.831 14.645 17.7742 14.6078 18.9719 14.8808C19.2821 14.9553 19.2201 14.9801 19.3566 15.278C19.8965 16.4632 20.3557 17.7229 20.8583 18.9765C21.0073 19.324 20.9266 19.4046 20.6287 19.2805C19.5055 18.8337 18.2955 18.1511 17.0109 17.4685C16.7255 17.3134 16.6944 17.3816 16.6448 17.0714C16.44 15.762 16.5021 14.9491 16.6758 14.7939L16.682 14.7877ZM25.5683 30.8228L18.9346 27.72C18.4692 27.478 19.1394 26.1749 19.6048 26.4169L25.86 30.2395C26.2944 30.5001 26.0151 31.0276 25.5621 30.8228H25.5683ZM20.0826 24.5366C19.6545 24.1767 20.6536 22.9728 21.0817 23.3327L26.7412 28.7315C27.1321 29.0977 26.7226 29.5817 26.2944 29.2652L20.0826 24.5366ZM19.5986 13.1123C19.7103 11.7222 19.9834 10.9031 20.1881 10.7852C20.3867 10.6797 21.3548 10.8721 22.5214 11.4492C22.8193 11.5981 22.7448 11.6043 22.8193 11.9518C23.0799 13.3046 23.2413 14.7133 23.4522 16.1157C23.5143 16.5005 23.415 16.5687 23.1482 16.3701C22.1118 15.6379 21.0197 14.6388 19.8841 13.6211C19.6234 13.3915 19.5738 13.4536 19.5986 13.1185V13.1123ZM26.071 18.4614L29.4219 26.5286C29.6453 27.0747 29.0062 27.3911 28.7145 26.8637L24.4948 19.2185C24.2217 18.66 25.7979 17.8967 26.071 18.4614ZM24.7244 12.3614C25.0533 11.1265 25.4318 10.4315 25.6366 10.357C25.8414 10.2949 26.6853 10.63 27.6348 11.3375C27.8892 11.5236 27.8209 11.5236 27.8271 11.8463C27.8457 13.1122 27.7651 14.403 27.7216 15.7124C27.7216 16.0785 27.6161 16.1219 27.399 15.8923C26.5798 15.0608 25.7669 13.9748 24.8981 12.8702C24.7058 12.622 24.6499 12.6717 24.7306 12.3676L24.7244 12.3614ZM29.7695 16.8914L31.1409 25.9577C31.234 26.5844 30.5079 26.7272 30.3404 26.1252L27.9699 17.2637C27.8395 16.6184 29.6391 16.2522 29.7757 16.8914H29.7695ZM33.2135 10.8224C33.8279 10.8224 34.6966 10.6238 35.1869 11.2382C34.4794 11.7346 34.3615 13.2922 34.3615 13.2922L34.194 13.8755C33.3252 13.0068 32.8846 12.5538 31.5628 11.443C31.476 11.443 32.0159 10.9465 33.2135 10.8224ZM36.8313 23.8788C37.2471 25.0392 36.9616 28.3282 34.2436 30.1464C34.2002 30.1464 34.2002 30.103 34.1195 30.103C35.3979 28.4585 36.8313 23.8788 36.8313 23.8788ZM37.818 10.748C38.271 10.748 38.6371 11.0768 38.6371 11.4864C38.6371 11.896 38.271 12.2745 37.818 12.2745C37.365 12.2745 37.0796 11.9022 37.0796 11.4864C37.0796 11.0706 37.365 10.748 37.818 10.748ZM41.6965 11.716L40.9518 13.0378C43.0803 16.2088 44.3152 20.0066 44.3152 24.0898C44.3152 33.7456 37.3774 41.7941 28.2367 43.7054C27.641 40.069 29.9929 38.9086 29.9929 38.9086C46.8222 31.704 37.9359 17.09 37.9359 17.09C36.8251 14.0121 37.8056 14.0927 37.8118 13.95C38.662 13.4598 39.6362 13.0005 40.2257 12.2249C40.927 11.4306 41.802 9.92882 42.4287 8.80563L39.6673 9.26484C36.7072 8.89251 35.9998 9.92882 35.9998 9.92882C32.171 8.48294 29.9929 7.82515 29.7508 9.92882C20.3619 6.13105 12.9215 10.7107 9.29126 17.09C4.56265 25.3185 8.8817 38.8217 22.1367 39.8953C24.2403 40.8137 24.1907 43.389 24.1286 44.1336H24.0728C12.878 44.1336 3.818 35.1542 3.818 24.0836C3.818 13.013 12.878 3.98394 24.0728 3.98394C28.6773 3.98394 32.9529 5.54773 36.3721 8.15404L38.3393 8.01132C34.5167 4.66655 29.5212 2.62493 24.0728 2.62493C12.1768 2.62493 2.42176 12.2621 2.42176 24.0774C2.42176 35.8927 12.1768 45.443 24.0728 45.443C35.9688 45.443 45.6742 35.8058 45.6742 24.0774C45.6742 19.4729 44.1973 15.2097 41.6965 11.7098V11.716ZM13.6227 28.7626C13.8958 28.2971 13.7406 27.6828 13.2752 27.4035C12.8036 27.1305 12.2016 27.2856 11.9162 27.7573C11.6432 28.2227 11.8045 28.837 12.2637 29.1101C12.7353 29.3955 13.3435 29.2342 13.6227 28.7626ZM14.2805 19.2557C14.7459 18.933 14.8638 18.2939 14.5411 17.8284C14.2122 17.363 13.5731 17.2451 13.1077 17.574C12.6422 17.9029 12.5367 18.5421 12.8594 19.0075C13.1821 19.4729 13.8213 19.5846 14.2867 19.2557H14.2805ZM13.4986 23.0411C13.1325 23.4072 13.1325 23.9967 13.4986 24.3629C13.8647 24.729 14.4605 24.729 14.8266 24.3629C15.1927 23.9967 15.1927 23.401 14.8266 23.0411C14.4605 22.6687 13.8647 22.6687 13.4986 23.0411ZM14.6714 32.008C14.2184 31.8281 13.7096 32.0577 13.5358 32.5107C13.3621 32.9575 13.5855 33.4725 14.0385 33.6463C14.4915 33.82 14.9941 33.5967 15.1741 33.1436C15.3478 32.6906 15.1244 32.1818 14.6714 32.008ZM18.6678 17.3134C19.1456 17.0838 19.3566 16.5005 19.127 16.0102C18.9036 15.5262 18.3203 15.3214 17.83 15.5448C17.3398 15.7806 17.135 16.3577 17.3646 16.848C17.588 17.3382 18.1776 17.543 18.6678 17.3134ZM21.6092 13.8693C22.1677 13.7514 22.5214 13.2053 22.4035 12.6468C22.2794 12.0883 21.7395 11.7346 21.181 11.8525C20.6287 11.9642 20.2688 12.5165 20.3867 13.0688C20.5046 13.6211 21.0507 13.9748 21.6092 13.8631V13.8693ZM26.4061 13.3729C26.9335 13.3605 27.3431 12.9199 27.3245 12.3986C27.3121 11.8836 26.8715 11.4678 26.3564 11.4802C25.8352 11.4988 25.4194 11.9332 25.438 12.4483C25.4566 12.9757 25.891 13.3853 26.4061 13.3667V13.3729ZM27.4672 27.8503L21.8512 21.8062C21.4665 21.347 22.7386 20.2796 23.1234 20.7388L28.0319 27.3787C28.3732 27.8317 27.852 28.2537 27.4734 27.8441L27.4672 27.8503ZM25.0657 44.1088L25.1401 41.0867C25.5559 39.7711 26.2944 40.1373 26.2944 40.1373C27.2748 41.2232 27.3679 43.1966 27.3741 43.8606C26.6171 43.9847 25.8538 44.0716 25.0719 44.1026L25.0657 44.1088ZM18.9781 34.5523C18.5127 34.5895 18.3885 33.3112 18.8478 33.2678L25.2394 33.1809C25.6738 33.1623 25.7235 33.6897 25.2891 33.758L18.9843 34.5523H18.9781ZM18.7981 29.9726L25.3946 31.6543C25.8538 31.7598 25.7545 32.3059 25.2953 32.2501L18.5685 31.3192C18.0845 31.2324 18.3203 29.8796 18.7981 29.9664V29.9726ZM17.6563 33.2181C16.651 33.6153 15.4409 33.9193 14.1812 34.2544C13.8958 34.3289 13.9206 34.3972 13.6972 34.2172C12.7601 33.4912 12.3071 32.9265 12.3133 32.7155C12.3258 32.5293 12.9215 31.9274 13.8709 31.3689C14.1191 31.2199 14.0881 31.2696 14.3674 31.3937C15.4471 31.8281 16.5269 32.368 17.6253 32.8768C17.9355 33.0071 17.9293 33.1064 17.6625 33.2181H17.6563ZM11.7797 29.6934C10.8613 28.7129 10.4579 27.9931 10.5075 27.7697C10.5634 27.5463 11.3267 26.994 12.4871 26.541C12.7912 26.4231 12.7477 26.4789 13.0332 26.6465C14.1626 27.3415 15.2734 28.1358 16.4028 28.8991C16.7255 29.1039 16.7069 29.2156 16.3842 29.2776C15.1865 29.5445 13.7716 29.6624 12.3071 29.8113C11.9782 29.8423 11.9907 29.9168 11.7735 29.681L11.7797 29.6934ZM11.7859 16.9783C11.9224 16.7983 12.8905 16.5998 14.1688 16.6742C14.5163 16.6928 14.448 16.7239 14.6404 17.0155C15.4037 18.1449 16.1049 19.3736 16.8496 20.5837C17.0668 20.9188 16.9923 21.0119 16.6634 20.9374C15.4223 20.6706 14.0447 20.1803 12.5988 19.6901C12.2637 19.5784 12.2513 19.6529 12.1458 19.3364C11.7052 18.0208 11.6307 17.1582 11.7797 16.9721L11.7859 16.9783ZM17.2467 25.5047C16.0863 25.4612 14.7645 25.244 13.3807 25.0393C13.0704 24.9896 13.0642 25.0641 12.9215 24.791C12.3071 23.674 12.1086 22.917 12.2079 22.7184C12.3009 22.5384 13.1387 22.2095 14.3053 22.0668C14.6094 22.0296 14.5659 22.0668 14.7893 22.2902C15.6581 23.1962 16.4835 24.1891 17.346 25.1572C17.588 25.424 17.5446 25.5171 17.2405 25.5047H17.2467ZM16.682 14.7877C16.831 14.645 17.7742 14.6078 18.9719 14.8808C19.2821 14.9553 19.2201 14.9801 19.3566 15.278C19.8965 16.4632 20.3557 17.7229 20.8583 18.9765C21.0073 19.324 20.9266 19.4046 20.6287 19.2805C19.5055 18.8337 18.2955 18.1511 17.0109 17.4685C16.7255 17.3134 16.6944 17.3816 16.6448 17.0714C16.44 15.762 16.5021 14.9491 16.6758 14.7939L16.682 14.7877ZM25.5683 30.8228L18.9346 27.72C18.4692 27.478 19.1394 26.1749 19.6048 26.4169L25.86 30.2395C26.2944 30.5001 26.0151 31.0276 25.5621 30.8228H25.5683ZM20.0826 24.5366C19.6545 24.1767 20.6536 22.9728 21.0817 23.3327L26.7412 28.7315C27.1321 29.0977 26.7226 29.5817 26.2944 29.2652L20.0826 24.5366ZM19.5986 13.1123C19.7103 11.7222 19.9834 10.9031 20.1881 10.7852C20.3867 10.6797 21.3548 10.8721 22.5214 11.4492C22.8193 11.5981 22.7448 11.6043 22.8193 11.9518C23.0799 13.3046 23.2413 14.7133 23.4522 16.1157C23.5143 16.5005 23.415 16.5687 23.1482 16.3701C22.1118 15.6379 21.0197 14.6388 19.8841 13.6211C19.6234 13.3915 19.5738 13.4536 19.5986 13.1185V13.1123ZM26.071 18.4614L29.4219 26.5286C29.6453 27.0747 29.0062 27.3911 28.7145 26.8637L24.4948 19.2185C24.2217 18.66 25.7979 17.8967 26.071 18.4614ZM24.7244 12.3614C25.0533 11.1265 25.4318 10.4315 25.6366 10.357C25.8414 10.2949 26.6853 10.63 27.6348 11.3375C27.8892 11.5236 27.8209 11.5236 27.8271 11.8463C27.8457 13.1122 27.7651 14.403 27.7216 15.7124C27.7216 16.0785 27.6161 16.1219 27.399 15.8923C26.5798 15.0608 25.7669 13.9748 24.8981 12.8702C24.7058 12.622 24.6499 12.6717 24.7306 12.3676L24.7244 12.3614ZM29.7633 16.8914L31.1347 25.9577C31.2278 26.5844 30.5017 26.7272 30.3342 26.1252L27.9637 17.2637C27.8333 16.6184 29.6329 16.2522 29.7695 16.8914H29.7633ZM33.2135 10.8286C33.8279 10.8286 34.6966 10.6301 35.1869 11.2444C34.4794 11.7408 34.3615 13.2984 34.3615 13.2984L34.194 13.8817C33.3252 13.013 32.8846 12.56 31.5628 11.4492C31.476 11.4492 32.0159 10.9527 33.2135 10.8286ZM36.8313 23.8788C37.2471 25.0392 36.9616 28.3282 34.2436 30.1464C34.2002 30.1464 34.2002 30.103 34.1195 30.103C35.3979 28.4585 36.8313 23.8788 36.8313 23.8788ZM37.818 10.7542C38.271 10.7542 38.6371 11.083 38.6371 11.4926C38.6371 11.9022 38.271 12.2807 37.818 12.2807C37.365 12.2807 37.0796 11.9084 37.0796 11.4926C37.0796 11.0768 37.365 10.7542 37.818 10.7542ZM41.6965 11.7222L40.9518 13.044C43.0803 16.215 44.3152 20.0128 44.3152 24.096C44.3152 33.7518 37.3774 41.8003 28.2367 43.7116C27.641 40.0752 29.9929 38.9148 29.9929 38.9148C46.8222 31.7102 37.9359 17.0962 37.9359 17.0962C36.8251 14.0183 37.8056 14.0989 37.8118 13.9562C38.662 13.466 39.6362 13.0068 40.2257 12.2311C40.927 11.4368 41.802 9.93503 42.4287 8.81183L39.6673 9.27104C36.7072 8.89871 35.9998 9.93503 35.9998 9.93503C32.171 8.48915 29.9929 7.83136 29.7508 9.93503C20.3619 6.13726 12.9215 10.7169 9.29126 17.0962C4.56265 25.3247 8.8817 38.8279 22.1367 39.9015C24.2403 40.8199 24.1907 43.3952 24.1286 44.1398H24.0728C12.878 44.1398 3.818 35.1604 3.818 24.0898C3.818 13.0192 12.878 3.99015 24.0728 3.99015C28.6773 3.99015 32.9529 5.55394 36.3721 8.16026L38.3393 8.01752C34.5167 4.67275 29.5212 2.63114 24.0728 2.63114C12.1768 2.63114 2.42176 12.2683 2.42176 24.0836C2.42176 35.8989 12.1768 45.4492 24.0728 45.4492C35.9688 45.4492 45.6742 35.812 45.6742 24.0836C45.6742 19.4791 44.1973 15.2159 41.6965 11.716V11.7222ZM26.3626 11.4864C25.8414 11.505 25.4256 11.9394 25.4442 12.4545C25.4628 12.9819 25.8972 13.3915 26.4123 13.3729C26.9397 13.3605 27.3493 12.9199 27.3307 12.3986C27.3183 11.8836 26.8777 11.4678 26.3626 11.4802V11.4864ZM26.3626 11.4864C25.8414 11.505 25.4256 11.9394 25.4442 12.4545C25.4628 12.9819 25.8972 13.3915 26.4123 13.3729C26.9397 13.3605 27.3493 12.9199 27.3307 12.3986C27.3183 11.8836 26.8777 11.4678 26.3626 11.4802V11.4864ZM22.4035 12.653C22.2794 12.0945 21.7395 11.7408 21.181 11.8587C20.6287 11.9704 20.2688 12.5227 20.3867 13.075C20.5046 13.6273 21.0507 13.981 21.6092 13.8693C22.1677 13.7514 22.5214 13.2053 22.4035 12.6468V12.653ZM22.4035 12.653C22.2794 12.0945 21.7395 11.7408 21.181 11.8587C20.6287 11.9704 20.2688 12.5227 20.3867 13.075C20.5046 13.6273 21.0507 13.981 21.6092 13.8693C22.1677 13.7514 22.5214 13.2053 22.4035 12.6468V12.653ZM19.127 16.0164C18.9036 15.5324 18.3203 15.3276 17.83 15.551C17.3398 15.7868 17.135 16.3639 17.3646 16.8542C17.588 17.3444 18.1776 17.5492 18.6678 17.3196C19.1456 17.09 19.3566 16.5067 19.127 16.0164ZM19.127 16.0164C18.9036 15.5324 18.3203 15.3276 17.83 15.551C17.3398 15.7868 17.135 16.3639 17.3646 16.8542C17.588 17.3444 18.1776 17.5492 18.6678 17.3196C19.1456 17.09 19.3566 16.5067 19.127 16.0164ZM14.5411 17.8284C14.2122 17.363 13.5731 17.2451 13.1077 17.574C12.6422 17.9029 12.5367 18.5421 12.8594 19.0075C13.1821 19.4729 13.8213 19.5846 14.2867 19.2557C14.7521 18.933 14.87 18.2939 14.5473 17.8284H14.5411ZM14.5411 17.8284C14.2122 17.363 13.5731 17.2451 13.1077 17.574C12.6422 17.9029 12.5367 18.5421 12.8594 19.0075C13.1821 19.4729 13.8213 19.5846 14.2867 19.2557C14.7521 18.933 14.87 18.2939 14.5473 17.8284H14.5411ZM14.8328 23.0473C14.4667 22.6749 13.8709 22.6749 13.5048 23.0473C13.1387 23.4134 13.1387 24.0029 13.5048 24.3691C13.8709 24.7352 14.4667 24.7352 14.8328 24.3691C15.1989 24.0029 15.1989 23.4072 14.8328 23.0473ZM14.8328 23.0473C14.4667 22.6749 13.8709 22.6749 13.5048 23.0473C13.1387 23.4134 13.1387 24.0029 13.5048 24.3691C13.8709 24.7352 14.4667 24.7352 14.8328 24.3691C15.1989 24.0029 15.1989 23.4072 14.8328 23.0473ZM13.269 27.4098C12.7974 27.1367 12.1954 27.2919 11.91 27.7635C11.6369 28.2289 11.7983 28.8432 12.2575 29.1163C12.7291 29.4017 13.3373 29.2404 13.6165 28.7688C13.8895 28.3033 13.7344 27.689 13.269 27.4098ZM13.269 27.4098C12.7974 27.1367 12.1954 27.2919 11.91 27.7635C11.6369 28.2289 11.7983 28.8432 12.2575 29.1163C12.7291 29.4017 13.3373 29.2404 13.6165 28.7688C13.8895 28.3033 13.7344 27.689 13.269 27.4098ZM14.6714 32.0142C14.2184 31.8343 13.7096 32.0639 13.5358 32.5169C13.3621 32.9637 13.5855 33.4787 14.0385 33.6525C14.4915 33.8263 14.9941 33.6029 15.1741 33.1499C15.3478 32.6968 15.1244 32.188 14.6714 32.0142ZM14.6714 32.0142C14.2184 31.8343 13.7096 32.0639 13.5358 32.5169C13.3621 32.9637 13.5855 33.4787 14.0385 33.6525C14.4915 33.8263 14.9941 33.6029 15.1741 33.1499C15.3478 32.6968 15.1244 32.188 14.6714 32.0142Z" fill="#3E4095"/>
</svg>
