<svg width="49" height="49" viewBox="0 0 49 49" fill="none" xmlns="http://www.w3.org/2000/svg">
<path d="M48.1548 24.0836C48.1548 37.3386 37.3324 48.0803 24.0836 48.0803C10.8348 48.0803 0 37.3386 0 24.0836C0 10.8286 10.8224 0 24.0836 0C30.587 0 36.6374 2.75525 40.9874 6.95638L45.4368 6.50338L43.9971 10.5804C46.591 14.3658 48.1548 19.144 48.1548 24.0836Z" fill="white"/>
<path fill-rule="evenodd" clip-rule="evenodd" d="M13.6227 28.7626C13.8958 28.2971 13.7406 27.6828 13.2752 27.4035C12.8036 27.1305 12.2016 27.2856 11.9162 27.7573C11.6432 28.2227 11.8045 28.837 12.2637 29.1101C12.7353 29.3955 13.3435 29.2342 13.6227 28.7626ZM14.2805 19.2557C14.7459 18.933 14.8638 18.2939 14.5411 17.8284C14.2122 17.363 13.5731 17.2451 13.1077 17.574C12.6422 17.9029 12.5367 18.5421 12.8594 19.0075C13.1821 19.4729 13.8213 19.5846 14.2867 19.2557H14.2805ZM13.5048 23.0411C13.1387 23.4072 13.1387 23.9967 13.5048 24.3629C13.8709 24.729 14.4667 24.729 14.8328 24.3629C15.1989 23.9967 15.1989 23.401 14.8328 23.0411C14.4667 22.6687 13.8709 22.6687 13.5048 23.0411ZM14.6714 32.008C14.2184 31.8281 13.7096 32.0577 13.5358 32.5107C13.3621 32.9575 13.5855 33.4725 14.0385 33.6463C14.4915 33.82 14.9941 33.5967 15.1741 33.1436C15.3478 32.6906 15.1244 32.1818 14.6714 32.008ZM41.7027 11.716L40.958 13.0378C43.0865 16.2088 44.3214 20.0066 44.3214 24.0898C44.3214 33.7456 37.3836 41.7941 28.2429 43.7054C27.6472 40.069 29.9991 38.9086 29.9991 38.9086C46.8284 31.704 37.9421 17.09 37.9421 17.09C36.8313 14.0121 37.8118 14.0927 37.818 13.95C38.6682 13.4598 39.6424 13.0005 40.2319 12.2249C40.9332 11.4306 41.8082 9.92882 42.4349 8.80563L39.6735 9.26484C36.7134 8.89251 36.006 9.92882 36.006 9.92882C32.1772 8.48294 29.9991 7.82515 29.757 9.92882C20.3681 6.13105 12.9277 10.7107 9.29747 17.09C4.56887 25.3185 8.8879 38.8217 22.1429 39.8953C24.2465 40.8137 24.1969 43.389 24.1349 44.1336H24.079C12.8842 44.1336 3.8242 35.1542 3.8242 24.0836C3.8242 13.013 12.8842 3.98394 24.079 3.98394C28.6835 3.98394 32.9591 5.54773 36.3783 8.15404L38.3455 8.01132C34.5229 4.66655 29.5274 2.62493 24.079 2.62493C12.183 2.62493 2.42796 12.2621 2.42796 24.0774C2.42796 35.8927 12.183 45.443 24.079 45.443C35.975 45.443 45.6804 35.8058 45.6804 24.0774C45.6804 19.4729 44.2035 15.2097 41.7027 11.7098V11.716ZM24.079 47.3419C11.2336 47.3419 0.820733 36.8918 0.820733 24.0836C0.820733 11.2754 11.2336 0.819132 24.079 0.819132C30.3279 0.819132 36.3783 3.53715 40.5733 7.61417L44.5634 7.24183L43.2478 10.8659C45.6742 14.5768 47.3311 19.3054 47.3311 24.0836C47.3311 36.8856 36.8748 47.3419 24.079 47.3419Z" fill="#3E4095"/>
</svg>
