<svg width="539" height="109" viewBox="0 0 539 109" fill="none" xmlns="http://www.w3.org/2000/svg">
<path fill-rule="evenodd" clip-rule="evenodd" d="M538.685 54.0927C538.685 83.9675 515.534 108.185 486.972 108.185H51.7133C23.1515 108.185 0 83.9675 0 54.0927C0 24.2178 23.1515 0 51.7133 0H486.972C515.534 0 538.685 24.2178 538.685 54.0927Z" fill="#FFDD21"/>
<path d="M91.6009 53.3903C91.6009 74.4784 74.3828 91.5681 53.3046 91.5681C32.2263 91.5681 14.9885 74.4784 14.9885 53.3903C14.9885 32.3021 32.2066 15.0742 53.3046 15.0742C63.6512 15.0742 73.2771 19.4577 80.1979 26.1415L87.2766 25.4208L84.9862 31.9072C89.113 37.9296 91.6009 45.5316 91.6009 53.3903Z" fill="#FEFEFE"/>
<text x="110" y="70" font-family="serif" font-size="52" font-weight="bold" fill="#1a1a1a" letter-spacing="2">THE CHENNAI SILKS</text>
</svg>
