<svg width="539" height="109" viewBox="0 0 539 109" fill="none" xmlns="http://www.w3.org/2000/svg">
<path fill-rule="evenodd" clip-rule="evenodd" d="M538.685 54.0927C538.685 83.9675 515.534 108.185 486.972 108.185H51.7133C23.1515 108.185 0 83.9675 0 54.0927C0 24.2178 23.1515 0 51.7133 0H486.972C515.534 0 538.685 24.2178 538.685 54.0927Z" fill="#FFDD21"/>
<path d="M91.6009 53.3903C91.6009 74.4784 74.3828 91.5681 53.3046 91.5681C32.2263 91.5681 14.9885 74.4784 14.9885 53.3903C14.9885 32.3021 32.2066 15.0742 53.3046 15.0742C63.6512 15.0742 73.2771 19.4577 80.1979 26.1415L87.2766 25.4208L84.9862 31.9072C89.113 37.9296 91.6009 45.5316 91.6009 53.3903Z" fill="#FEFEFE"/>
<path fill-rule="evenodd" clip-rule="evenodd" d="M262.724 52.7242C261.717 54.4124 261.154 55.5675 260.818 56.5647L260.788 56.6437L260.739 56.7226C260.334 57.4137 260.078 58.1542 259.86 58.9144C260.581 58.7169 261.144 58.5195 261.677 58.2825C262.635 57.9172 263.227 57.5223 263.533 57.0583C264.204 56.2784 264.501 54.6888 264.501 52.1022V51.885C264.333 51.9047 264.175 51.9146 264.017 51.9245C263.691 52.1121 263.365 52.1911 263.079 52.2602C263.069 52.2602 263.049 52.2602 263.039 52.2602C262.951 52.4379 262.842 52.586 262.714 52.7143L262.724 52.7242ZM256.968 75.4709C255.744 75.4709 254.47 74.8193 252.95 73.4075C251.478 71.9168 250.432 70.3667 249.613 68.5107L249.543 68.3428V67.3358C249.543 64.6702 250.106 61.9157 251.222 59.1513C252.397 56.1006 253.887 53.3857 255.773 50.878L255.842 50.7793L255.941 50.7101C257.639 49.4464 259.327 48.5381 261.262 47.8471C261.509 47.7187 261.707 47.6792 261.874 47.6694C263.987 46.9684 265.804 46.6426 267.581 46.6426C269.358 46.6426 270.869 47.2251 271.777 48.2716C272.537 49.2984 272.883 50.8681 272.883 53.1191C272.883 55.1627 272.626 56.851 272.122 58.1443C271.599 59.4673 270.474 60.4249 268.756 60.9975C267.265 61.6195 265.695 62.1131 264.046 62.6364L263.484 62.8141C263.158 63.0017 262.793 63.0609 262.526 63.1103C262.437 63.13 262.358 63.1399 262.289 63.1596L262.111 63.209C261.016 63.5249 259.89 63.8507 258.715 64.1173C258.962 64.996 259.268 65.7661 259.633 66.4275C259.969 67.2568 260.324 67.8295 260.838 68.3527C261.104 68.2836 261.41 68.2145 261.707 68.096C262.546 67.8689 263.503 67.5925 264.323 67.1285C265.883 66.3387 267.541 65.2625 269.723 63.7816L271.293 62.7154L270.503 68.8167L270.256 69.0339C268.134 70.89 265.715 72.4005 262.852 73.6642C262.694 73.763 262.506 73.8716 262.25 73.9209C260.236 74.9279 258.35 75.4808 256.938 75.4808L256.968 75.4709Z" fill="#ED3237"/>
<path fill-rule="evenodd" clip-rule="evenodd" d="M104.295 74.4928C104.403 69.4084 104.996 64.3338 106.032 59.3974C106.871 54.9152 108.184 49.89 110.238 43.2358C108.737 43.2358 107.217 43.1963 105.963 42.91C104.472 42.6928 103.218 42.3472 102.073 41.824L101.313 41.4784L104.63 33.6L105.331 33.758C107.098 34.1627 108.974 34.5675 110.88 34.765C111.462 34.7946 112.084 34.844 112.696 34.8835C113.93 34.9723 115.204 35.0612 116.537 35.0612C117.257 35.0612 118.077 34.9822 118.956 34.9032C119.489 34.8538 120.042 34.8045 120.614 34.765C120.999 34.6761 121.592 34.5675 122.233 34.4589C122.875 34.3405 123.576 34.2121 124.336 34.064C124.642 34.0147 124.909 33.9357 125.166 33.8567C125.452 33.7777 125.748 33.6987 126.054 33.6395L127.436 33.3828L125.323 40.4616L125.008 41.7154L124.553 41.8635C122.954 42.367 121.404 42.7027 119.676 42.9199C118.857 43.0778 118.067 43.1963 117.277 43.2852L118.146 43.7985L118.324 45.3782L118.225 45.5954C116.981 48.34 116.023 51.3808 115.362 54.619C114.681 58.035 114.365 61.4312 114.365 65.3013V68.4803C114.365 69.0135 114.394 69.5565 114.414 70.0995C114.444 70.6918 114.463 71.3138 114.463 71.9457V72.6565L113.772 72.7848C112.637 73.002 111.442 73.3081 110.238 73.6833C108.895 74.0782 107.296 74.5718 105.46 75.3024L104.255 75.7763L104.285 74.483L104.295 74.4928Z" fill="#ED3237"/>
<path fill-rule="evenodd" clip-rule="evenodd" d="M204.185 75.3706C203.355 75.3706 202.408 75.1929 201.282 74.8177L201.154 74.7782L201.045 74.6992C200.325 74.176 199.475 73.5343 198.617 72.6655C196.958 70.9871 195.645 69.1212 194.697 67.0972C193.769 65.2017 193.295 63.2173 193.295 61.2131C193.295 58.1328 193.947 54.7267 195.28 50.7974C196.731 46.8384 198.459 43.6495 200.581 41.0135C201.371 40.1151 202.151 39.3253 202.911 38.5552L203.069 38.3874C204.047 37.5087 205.113 36.7485 206.298 36.087C207.798 35.2281 209.18 34.6456 210.513 34.073L210.918 33.8953C212.596 33.3227 213.672 33.1055 214.699 33.1055C216.111 33.1055 217.789 33.7472 219.438 34.9023C220.919 35.7908 222.38 37.0249 223.861 38.6441C224.128 38.8415 224.325 39.0785 224.473 39.2562L224.611 39.424L225.154 39.9867L223.93 41.3887L219.685 46.5225L219.023 45.8117C217.059 43.7088 215.371 42.2081 214.146 41.4677C212.952 40.6877 211.915 40.2138 210.75 39.9176C209.852 40.6482 209.161 41.5565 208.41 42.5734C207.69 43.5706 206.91 45.0021 206.179 46.7002C205.083 49.3757 204.362 51.6958 203.908 53.9961C203.227 56.4544 202.901 58.4586 202.901 60.1765C202.901 60.7293 203.059 61.4303 203.346 62.0918C203.622 62.8421 204.047 63.6418 204.511 64.481L204.619 64.6883C205.863 66.4358 206.406 66.9886 206.643 67.1269C207.324 67.6205 207.857 67.818 208.43 67.818C209.388 67.818 210.513 67.4724 211.767 66.8011C213.149 66.2284 214.67 65.3202 216.624 63.8886L217.355 63.3555L219.685 66.9097L219.073 67.3934C215.617 70.1282 212.952 72.004 210.681 73.2973C207.818 74.7486 205.893 75.3508 204.195 75.3508L204.185 75.3706Z" fill="#ED3237"/>
<path fill-rule="evenodd" clip-rule="evenodd" d="M408.258 75.4683C406.244 75.4683 404.348 75.0734 402.452 74.2737C400.577 73.474 398.533 72.2794 396.005 70.5023L395.364 70.0481L399.836 62.2783L400.577 62.7127C403.242 64.2825 405.236 65.2994 407.043 66.0299C408.573 66.6025 410.301 67.1949 411.377 67.1949C412.256 67.1949 413.293 66.6815 414.201 66.178C415.119 65.5264 415.86 64.7958 416.462 63.927C415.8 62.8904 414.349 61.4687 412.068 59.6028C411.752 59.3264 411.466 59.1289 411.2 58.9413C410.864 58.6945 410.538 58.4674 410.232 58.1614C410.074 58.0528 409.887 57.9146 409.659 57.7467C409.403 57.5591 409.107 57.3321 408.751 57.0754C404.486 53.5311 402.531 50.6186 402.531 47.8839C402.531 46.3635 402.887 44.9023 403.627 43.4115C404.19 42.0886 405.256 40.4398 406.767 38.5443C408.179 36.9251 409.837 35.5825 411.585 34.6445C413.47 33.6869 415.445 33.2031 417.459 33.2031C419.137 33.2031 421.082 33.6474 423.067 34.4964C424.873 35.1875 426.522 36.0662 427.954 37.1226L429.553 38.2382L428.299 40.193L425.031 45.7316L424.281 45.238C422.158 43.8361 420.055 42.6908 418.032 41.822C416.264 41.1309 414.774 40.7656 413.609 40.7656C412.829 40.7656 412.049 41.0322 411.545 41.4666C410.785 41.9898 410.133 42.6809 409.561 43.5596C410.884 45.4848 413.174 47.7457 416.373 50.2731C416.995 50.668 417.528 51.1024 417.953 51.4479C418.209 51.6651 418.426 51.8428 418.614 51.9514C420.332 53.3632 421.586 54.6566 422.425 55.8808C423.205 57.184 423.59 58.4674 423.59 59.741C423.59 61.4984 422.988 63.3544 421.744 65.4079C420.687 67.3134 419.118 69.3176 416.955 71.5093C415.277 73.0889 413.944 74.0466 412.74 74.5501C411.486 75.1326 409.916 75.4386 408.258 75.4386V75.4683Z" fill="#ED3237"/>
<path fill-rule="evenodd" clip-rule="evenodd" d="M491.822 75.4709C490.913 75.4709 489.403 75.2636 487.29 74.2665C485.74 73.7136 483.953 72.8547 481.761 71.5811L481.061 71.1763L484.891 63.6928L485.681 64.1667C487.527 65.2823 489.186 66.2498 490.775 66.7434C492.236 67.2667 493.431 67.5234 494.349 67.5234C494.606 67.5234 494.863 67.5234 495.258 67.4049L495.366 67.247C495.03 66.8224 494.458 66.3091 493.638 65.6871L493.471 65.5785C493.273 65.4501 493.095 65.3316 492.967 65.2625C489.897 63.1991 487.932 61.5899 486.994 60.415C486.007 59.3093 485.493 58.0851 485.493 56.8115C485.493 55.844 485.829 54.7974 486.53 53.6127C487.182 52.2996 488.001 51.184 489.018 50.256C490.153 48.9824 491.131 48.1334 492.098 47.5805C492.957 47.1461 494.221 46.6426 495.564 46.6426C496.906 46.6426 498.585 47.2448 500.046 47.8372C501.882 48.6467 503.521 49.6143 504.913 50.7299L505.515 51.2137L501.497 57.4828L500.776 57.0287C498.94 55.8736 497.173 54.8863 495.919 54.3137C494.853 53.8694 494.043 53.672 493.234 53.672H492.888L492.325 54.0471C493.135 55.0048 494.448 56.15 496.146 57.3347C496.353 57.4927 496.501 57.5914 496.6 57.6605C496.778 57.779 496.896 57.8679 496.975 57.9468C499.009 59.4179 500.105 60.4052 500.638 61.2641C501.211 61.9552 501.586 62.9721 501.586 63.9791C501.586 65.1934 501.211 66.4473 500.49 67.632C500.066 68.7476 499.236 70.1298 497.864 71.9562C496.817 73.3582 495.81 74.227 495.139 74.7009L495.05 74.77L494.942 74.8095C494.033 75.1451 493.046 75.4709 491.822 75.4709Z" fill="#ED3237"/>
</svg>
